<?xml version="1.0" encoding="utf-8" standalone="yes"?>
<!DOCTYPE svg PUBLIC "-//W3C//DTD SVG 1.1//EN" "http://www.w3.org/Graphics/SVG/1.1/DTD/svg11.dtd">
<svg height="211.27501" version="1.1" width="212.16249" xmlns="http://www.w3.org/2000/svg" xmlns:xlink="http://www.w3.org/1999/xlink">
<style type="text/css"><![CDATA[
#P0 {fill:url(#R0)}
#P1 {fill:url(#L2);stroke-width:1.2535489}
#P2 {fill:url(#L1)}
#P3 {fill:url(#L3)}
#P4,#P5,#P6 {fill:none;fill-opacity:.75}
#P2,#P4 {stroke-width:3.75}
#P4,#P5 {stroke:#000}
#P5 {stroke-width:3.4538534}
#P6 {stroke:#f00;stroke-width:1.875}
]]></style>
  <metadata>
    <rdf:RDF xmlns:cc="http://web.resource.org/cc/" xmlns:dc="http://purl.org/dc/elements/1.1/" xmlns:rdf="http://www.w3.org/1999/02/22-rdf-syntax-ns#">
      <cc:Work>
        <dc:title>Modern Clock</dc:title>
        <dc:subject>
          <rdf:Bag>
            <rdf:li>clock</rdf:li>
            <rdf:li>modern</rdf:li>
          </rdf:Bag>
        </dc:subject>
        <dc:publisher>
          <cc:Agent rdf:about="http://www.openclipart.org">
            <dc:title>Chris Kempson</dc:title>
          </cc:Agent>
        </dc:publisher>
        <dc:creator>
          <cc:Agent>
            <dc:title>Chris Kempson</dc:title>
          </cc:Agent>
        </dc:creator>
        <dc:rights>
          <cc:Agent>
            <dc:title>Chris Kempson</dc:title>
          </cc:Agent>
        </dc:rights>
        <dc:format>image/svg+xml</dc:format>
        <dc:type rdf:resource="http://purl.org/dc/dcmitype/StillImage"/>
        <cc:license rdf:resource="http://web.resource.org/cc/PublicDomain"/>
        <dc:language>en</dc:language>
      </cc:Work>
      <cc:License rdf:about="http://web.resource.org/cc/PublicDomain">
        <cc:permits rdf:resource="http://web.resource.org/cc/Reproduction"/>
        <cc:permits rdf:resource="http://web.resource.org/cc/Distribution"/>
        <cc:permits rdf:resource="http://web.resource.org/cc/DerivativeWorks"/>
      </cc:License>
    </rdf:RDF>
  </metadata>
  <defs>
    <linearGradient id="L0">
      <stop style="stop-color:#000"/>
      <stop offset=".87947369" style="stop-color:#000;stop-opacity:.76612902"/>
      <stop offset="1" style="stop-color:#000;stop-opacity:0"/>
    </linearGradient>
    <linearGradient id="L1" x1=".47916669" x2=".48611113" y1=".014084688" y2=".99295759">
      <stop style="stop-color:#ddd"/>
      <stop offset="1" style="stop-color:#f5f5f5"/>
    </linearGradient>
    <linearGradient id="L2" x1=".49305555" x2=".49305558" y1=".68309879" y2="3.1183472e-8">
      <stop style="stop-color:#fff;stop-opacity:0"/>
      <stop offset="1" style="stop-color:#fff;stop-opacity:.57254905"/>
    </linearGradient>
    <linearGradient id="L3" x1=".47058824" x2=".48529410" y1=".92957747" y2=".0070422534">
      <stop style="stop-color:#fff;stop-opacity:0"/>
      <stop offset="1" style="stop-color:#fff;stop-opacity:.85000002"/>
    </linearGradient>
    <linearGradient id="L4" x1="-2.9137933e-19" x2="1" xlink:href="#L0" y1=".5" y2=".5"/>
    <radialGradient id="R0" cx=".5" cy=".5" fx=".5" fy=".5" r=".5" xlink:href="#L0"/>
  </defs>
  <path id="P0" d="M348.37518 364.24921A 103.64882 103.64882 0 1 0 141.07755,364.24921A 103.64882 103.64882 0 1 0 348.37518 364.24921z" transform="translate(-136.2155,-256.623)"/>
  <path d="M348.37518 364.24921A 103.64882 103.64882 0 1 0 141.07755,364.24921A 103.64882 103.64882 0 1 0 348.37518 364.24921z" transform="translate(-141.0775,-260.601)"/>
  <path id="P1" d="M348.37518 364.24921A 103.64882 103.64882 0 1 0 141.07755,364.24921A 103.64882 103.64882 0 1 0 348.37518 364.24921z" transform="matrix(.936977,1.445173e-2,0,0.969458,-124.1045,-254.3018)"/>
  <path d="M198.55874 103.54633A 83.225685 83.225685 0 1 0 32.107368,103.54633A 83.225685 83.225685 0 1 0 198.55874 103.54633z" transform="matrix(1.060913,0,0,1.147927,-18.74421,-6.87303)"/>
  <path id="P2" d="M345.42367 388.1384A 82.601311 82.601311 0 1 0 180.22105,388.1384A 82.601311 82.601311 0 1 0 345.42367 388.1384z" transform="translate(-159.1164,-285.23)"/>
  <path id="P3" d="M178.85574 945.18524A 72.361481 75.774757 0 1 0 34.132782,945.18524A 72.361481 75.774757 0 1 0 178.85574 945.18524z" transform="matrix(.96497,0,0,0.905405,0.99974,-759.1205)"/>
  <g transform="translate(-1.105212,-845.0955)">
    <path id="P4" d="M110.59018,958.15572L 79.870691,910.36983"/>
    <path id="P5" d="M98.933011,958.94485L 135.90047,891.8317"/>
    <path id="P6" d="M91.475836,950.64651L 171.34653,942.45465"/>
  </g>
  <rect height="9.060586" width="3.7730832" x="101.875" y="26.224121"/>
  <rect height="9.060586" width="3.7730832" x="101.875" y="170.19658"/>
  <rect height="9.060586" transform="matrix(0,1,-1,0,0,0)" width="3.7730832" x="100.62693" y="-36.990318"/>
  <rect height="9.060586" transform="matrix(0,1,-1,0,0,0)" width="3.7730832" x="100.62693" y="-179.36115"/>
</svg>
