<?xml version="1.0" encoding="UTF-8" standalone="no"?>
<svg
   xmlns:dc="http://purl.org/dc/elements/1.1/"
   xmlns:cc="http://creativecommons.org/ns#"
   xmlns:rdf="http://www.w3.org/1999/02/22-rdf-syntax-ns#"
   xmlns:svg="http://www.w3.org/2000/svg"
   xmlns="http://www.w3.org/2000/svg"
   xmlns:sodipodi="http://sodipodi.sourceforge.net/DTD/sodipodi-0.dtd"
   xmlns:inkscape="http://www.inkscape.org/namespaces/inkscape"
   width="180"
   height="185"
   viewBox="0 0 180 185"
   id="Symbol_vote"
   sodipodi:version="0.32"
   inkscape:version="0.48.4 r9939"
   sodipodi:docname="Symbol_deferred.svg"
   inkscape:output_extension="org.inkscape.output.svg.inkscape"
   version="1.1">
  <metadata
     id="metadata2679">
    <rdf:RDF>
      <cc:Work
         rdf:about="">
        <dc:format>image/svg+xml</dc:format>
        <dc:type
           rdf:resource="http://purl.org/dc/dcmitype/StillImage" />
      </cc:Work>
    </rdf:RDF>
  </metadata>
  <defs
     id="defs2677" />
  <sodipodi:namedview
     inkscape:window-height="1033"
     inkscape:window-width="958"
     inkscape:pageshadow="2"
     inkscape:pageopacity="0.0"
     guidetolerance="10.0"
     gridtolerance="10.0"
     objecttolerance="10.0"
     borderopacity="1.0"
     bordercolor="#666666"
     pagecolor="#ffffff"
     id="base"
     inkscape:zoom="2.8895822"
     inkscape:cx="55.398232"
     inkscape:cy="83.874485"
     inkscape:window-x="0"
     inkscape:window-y="32"
     inkscape:current-layer="symbol"
     showgrid="false"
     inkscape:window-maximized="0" />
  <g
     id="symbol">
    <ellipse
       id="path1306"
       transform="matrix(-0.1396,-0.9902,0.9902,-0.1396,19.3624,191.8031)"
       cx="93.010002"
       cy="87.489998"
       rx="87.606003"
       ry="80.862"
       sodipodi:cx="93.010002"
       sodipodi:cy="87.489998"
       sodipodi:rx="87.606003"
       sodipodi:ry="80.862"
       style="fill:#7b68ee;" />
    <path
       id="path1308"
       d="M 157.067,78.462 C 162.438,116.795 138.114,151.912 102.735,156.899 C 67.358,161.886 34.324,134.855 28.954,96.521 C 23.582,58.188 47.907,23.072 83.285,18.085 C 118.662,13.098 151.696,40.13 157.067,78.462 L 157.067,78.462 z "
       style="fill:#efefef;" />
    <path
       d="M 89.174,41.375 L 146.254,83.944 L 92.159,123.78 L 95.742,95.527 C 95.742,95.527 84.995,93.173 74.845,104.355 C 64.696,115.54 57.531,134.375 57.531,134.375 C 57.531,134.375 54.547,94.938 72.459,84.933 C 71.86,81.989 96.34,72.571 96.34,72.571 L 89.174,41.375 z "
       id="path2674"
       style="fill:#7b68ee;" />
  </g>
</svg>
