<?xml version="1.0" standalone="no"?>
<!DOCTYPE svg PUBLIC "-//W3C//DTD SVG 1.0//EN" 
  "http://www.w3.org/Graphics/SVG/1.0/DTD/svg10.dtd">
<svg 
   xmlns="http://www.w3.org/2000/svg"
   xmlns:xlink="http://www.w3.org/1999/xlink"
   version="1.0"
   width="250"
   height="250"
   id="svg11152">
  <defs
     id="defs11154">
    <linearGradient
       id="linearGradient8409">
      <stop
         style="stop-color:white;stop-opacity:0.65934068"
         offset="0"
         id="stop8411" />
      <stop
         style="stop-color:white;stop-opacity:0"
         offset="1"
         id="stop8413" />
    </linearGradient>
    <linearGradient
       x1="200.5"
       y1="437.36218"
       x2="346.5"
       y2="583.36218"
       id="linearGradient11271"
       xlink:href="#linearGradient8409"
       gradientUnits="userSpaceOnUse" />
  </defs>
  <g
     id="layer1">
    <path
       d="M 356 511.86218 A 82 80 0 1 1  192,511.86218 A 82 80 0 1 1  356 511.86218 z"
       transform="matrix(1.369447,0,0,1.403684,-250.0704,-593.2799)"
       style="opacity:1;fill:#d3d7cf;fill-opacity:1;fill-rule:evenodd;stroke:#555753;stroke-width:17.46982574;stroke-linecap:round;stroke-linejoin:round;stroke-miterlimit:4;stroke-dasharray:none;stroke-dashoffset:0;stroke-opacity:1"
       id="path11263" />
    <path
       d="M 346.5 510.36218 A 73 73 0 1 1  200.5,510.36218 A 73 73 0 1 1  346.5 510.36218 z"
       transform="matrix(1.707391,0,0,1.714402,-341.8136,-749.9656)"
       style="opacity:1;fill:url(#linearGradient11271);fill-opacity:1;fill-rule:evenodd;stroke:none;stroke-width:15;stroke-linecap:round;stroke-linejoin:round;stroke-miterlimit:4;stroke-dasharray:none;stroke-dashoffset:0;stroke-opacity:1"
       id="path11265" />
    <path
       d="M 188.43858,116.94264 L 46.669779,116.94264 L 46.669779,92.338141 L 188.43858,92.338141 L 188.43858,116.94264 M 188.43858,182.11529 L 46.669779,182.11529 L 46.669779,157.51078 L 188.43858,157.51078 L 188.43858,182.11529"
       transform="scale(1.078701,0.927041)"
       style="font-size:299.94061279px;font-style:normal;font-weight:normal;fill:#555753;fill-opacity:1;stroke:none;stroke-width:1px;stroke-linecap:butt;stroke-linejoin:miter;stroke-opacity:1;font-family:Arial"
       id="text11273" />
  </g>
</svg>
