<?xml version="1.0" encoding="UTF-8" standalone="no"?>
<!-- Created with Inkscape (http://www.inkscape.org/) -->
<svg
   xmlns:svg="http://www.w3.org/2000/svg"
   xmlns="http://www.w3.org/2000/svg"
   xmlns:xlink="http://www.w3.org/1999/xlink"
   version="1.0"
   width="250"
   height="250"
   id="svg3811">
  <defs
     id="defs3813">
    <linearGradient
       id="linearGradient8409">
      <stop
         style="stop-color:#ffffff;stop-opacity:0.65934068"
         offset="0"
         id="stop8411" />
      <stop
         style="stop-color:#ffffff;stop-opacity:0"
         offset="1"
         id="stop8413" />
    </linearGradient>
    <linearGradient
       x1="200.5"
       y1="437.36218"
       x2="346.5"
       y2="583.36218"
       id="linearGradient11360"
       xlink:href="#linearGradient8409"
       gradientUnits="userSpaceOnUse" />
    <linearGradient
       x1="200.5"
       y1="437.36218"
       x2="346.5"
       y2="583.36218"
       id="linearGradient2291"
       xlink:href="#linearGradient8409"
       gradientUnits="userSpaceOnUse"
       gradientTransform="matrix(1.715148,0,0,1.715148,-344.2715,-750.168)" />
  </defs>
  <path
     d="M 237.64203,125.39117 C 237.64203,187.41734 187.35991,237.69949 125.33376,237.69949 C 63.307619,237.69949 13.025496,187.41734 13.025496,125.39117 C 13.025496,63.364996 63.307619,13.082849 125.33376,13.082849 C 187.35991,13.082849 237.64203,63.364996 237.64203,125.39117 z "
     style="fill:#d3d7cf;fill-opacity:1;fill-rule:evenodd;stroke:#555753;stroke-width:24.21361542;stroke-linecap:round;stroke-linejoin:round;stroke-miterlimit:4;stroke-dasharray:none;stroke-dashoffset:0;stroke-opacity:1"
     id="path11352" />
  <path
     d="M 250.02728,125.17867 C 250.02728,194.32793 193.97074,250.38448 124.82148,250.38448 C 55.672216,250.38448 -0.384326,194.32793 -0.384326,125.17867 C -0.384326,56.029411 55.672216,-0.027131697 124.82148,-0.027131697 C 193.97074,-0.027131697 250.02728,56.029411 250.02728,125.17867 z "
     style="fill:url(#linearGradient2291);fill-opacity:1;fill-rule:evenodd;stroke:none;stroke-width:15;stroke-linecap:round;stroke-linejoin:round;stroke-miterlimit:4;stroke-dasharray:none;stroke-dashoffset:0;stroke-opacity:1"
     id="path11354" />
  <path
     d="M 124.89528,125.27806 L 87.785231,190.41093"
     style="fill:#555753;fill-opacity:1;fill-rule:evenodd;stroke:#555753;stroke-width:16.83182716;stroke-linecap:butt;stroke-linejoin:miter;stroke-miterlimit:4;stroke-dasharray:none;stroke-opacity:1"
     id="path12249" />
  <path
     d="M 125.39119,132.46877 L 43.054637,68.082085 C 43.054637,68.082085 55.543123,49.15602 78.292795,36.717099 C 100.937,24.335845 125.39119,25.195371 125.39119,25.195371 L 125.39119,132.46877 z "
     style="opacity:1;fill:#3dc63d;fill-opacity:1;fill-rule:evenodd;stroke:none;stroke-width:1px;stroke-linecap:butt;stroke-linejoin:miter;stroke-opacity:1"
     id="path14908" />
  <path
     d="M 124.89528,124.78212 L 53.767043,69.200265"
     style="fill:#555753;fill-opacity:1;fill-rule:evenodd;stroke:#555753;stroke-width:11.22121716;stroke-linecap:butt;stroke-linejoin:miter;stroke-miterlimit:4;stroke-dasharray:none;stroke-opacity:1"
     id="path12251" />
  <path
     d="M 139.08132,125.27937 C 139.08132,133.11371 132.73033,139.4647 124.89598,139.4647 C 117.06165,139.4647 110.71066,133.11371 110.71066,125.27937 C 110.71066,117.44503 117.06165,111.09404 124.89598,111.09404 C 132.73033,111.09404 139.08132,117.44503 139.08132,125.27937 z "
     style="fill:#ffffff;fill-opacity:1;fill-rule:evenodd;stroke:#555753;stroke-width:5.42191505;stroke-linecap:round;stroke-linejoin:round;stroke-miterlimit:4;stroke-dasharray:none;stroke-dashoffset:0;stroke-opacity:1"
     id="path11362" />
</svg>
